# xmcd
#
# Track frame offsets:
#	150
#	6330
#	15951
#	43723
#	51817
#	72199
#	84978
#	107729
#	128052
#	150716
#	162501
#	182141
#	188612
#	196137
#	210805
#	233797
#	252754
#
# Disc length: 3518 seconds
#
# Revision: 0
# Processed by: cddbd v1.5PL3 Copyright (c) Steve Scherf et al.
# Submitted via: dBpowerAMP V4.0
#
DISCID=cf0dbc11
DTITLE=Terry Allen - Juarez
DYEAR=1976
DGENRE=Bluegrass
TTITLE0=The Juarez Device (aka 'Texican Badman')
TTITLE1=The Characters-A Simple Story
TTITLE2=Cortez Sail
TTITLE3=Border Palace
TTITLE4=Dogwood
TTITLE5=Writing On Rocks Across The USA
TTITLE6=The Radio... And Real Life
TTITLE7=There Oughta Be A Law Against Sunny Southern California
TTITLE8=What Of Alicia
TTITLE9=Honeymoon In Cortez
TTITLE10=Four Corners
TTITLE11=The Run South
TTITLE12=Jabo-Street Walkin' Woman
TTITLE13=Cantina Carlotta
TTITLE14=La Despedida (The Parting)
TTITLE15=El Camino Instrumental
TTITLE16=El Camino
EXTD=
EXTT0=
EXTT1=
EXTT2=
EXTT3=
EXTT4=
EXTT5=
EXTT6=
EXTT7=
EXTT8=
EXTT9=
EXTT10=
EXTT11=
EXTT12=
EXTT13=
EXTT14=
EXTT15=
EXTT16=
PLAYORDER=
